<svg width="40" height="40" viewBox="0 0 40 40" fill="none" xmlns="http://www.w3.org/2000/svg">
<path d="M29.9998 13.3337H28.3332V10.0003C28.3332 5.40033 24.5998 1.66699 19.9998 1.66699C15.3998 1.66699 11.6665 5.40033 11.6665 10.0003V13.3337H9.99984C8.1665 13.3337 6.6665 14.8337 6.6665 16.667V33.3337C6.6665 35.167 8.1665 36.667 9.99984 36.667H29.9998C31.8332 36.667 33.3332 35.167 33.3332 33.3337V16.667C33.3332 14.8337 31.8332 13.3337 29.9998 13.3337ZM19.9998 28.3337C18.1665 28.3337 16.6665 26.8337 16.6665 25.0003C16.6665 23.167 18.1665 21.667 19.9998 21.667C21.8332 21.667 23.3332 23.167 23.3332 25.0003C23.3332 26.8337 21.8332 28.3337 19.9998 28.3337ZM25.1665 13.3337H14.8332V10.0003C14.8332 7.15033 17.1498 4.83366 19.9998 4.83366C22.8498 4.83366 25.1665 7.15033 25.1665 10.0003V13.3337Z" fill="#CDDC39"/>
</svg>
